<svg width="20" height="20" viewBox="0 0 17 14" fill="none" xmlns="http://www.w3.org/2000/svg">
<path d="M10.9164 4.27385e-07C11.1322 4.27385e-07 11.4031 0.0566671 11.6206 0.11C12.3789 0.293334 13.2781 0.520834 13.9164 1C14.5106 1.44583 14.9722 2.22333 15.3289 3.01333C16.0706 4.65917 16.5864 6.85333 16.7647 8.52167C16.8497 9.31333 16.8706 10.11 16.7181 10.6458C16.6431 10.9092 16.4806 11.1075 16.3664 11.2292C16.0181 11.5983 15.5697 11.8742 15.1264 12.125L14.9064 12.2492C14.7615 12.3298 14.6157 12.4087 14.4689 12.4858L14.0339 12.7108L13.4364 13.0083L12.9556 13.245C12.7796 13.3331 12.5781 13.3562 12.3868 13.31C12.1955 13.2638 12.0267 13.1514 11.9104 12.9927C11.794 12.834 11.7375 12.6392 11.751 12.4429C11.7644 12.2466 11.847 12.0613 11.9839 11.92L11.6222 11.1967C10.5823 11.5127 9.50083 11.6711 8.41391 11.6667C7.27224 11.6667 6.18308 11.5 5.20558 11.1967L4.84474 11.9183C4.98221 12.0594 5.06525 12.2447 5.07913 12.4411C5.09301 12.6376 5.03683 12.8327 4.92057 12.9917C4.8043 13.1507 4.63547 13.2634 4.44402 13.3098C4.25257 13.3562 4.05088 13.3332 3.87474 13.245L3.42141 13.02C2.91808 12.7717 2.41474 12.5233 1.92474 12.2492C1.41308 11.9633 0.870578 11.6592 0.464745 11.2283C0.302791 11.0646 0.182231 10.8647 0.113078 10.645C-0.0402551 10.11 -0.0185884 9.31417 0.0655782 8.52167C0.243912 6.85333 0.759745 4.65917 1.50224 3.01333C1.85808 2.22333 2.31975 1.44583 2.91391 1C3.55224 0.520834 4.45141 0.293334 5.20974 0.11C5.42724 0.0566671 5.69724 4.27385e-07 5.91391 4.27385e-07C6.03376 -0.000103071 6.15222 0.0256465 6.26122 0.0754925C6.37021 0.125338 6.46717 0.198108 6.54548 0.288837C6.62379 0.379565 6.68161 0.486117 6.71499 0.601225C6.74837 0.716332 6.75653 0.837286 6.73891 0.955834C7.29346 0.873782 7.85332 0.832837 8.41391 0.833334C8.98975 0.833334 9.55225 0.875 10.0922 0.956667C10.0745 0.838056 10.0826 0.717012 10.1159 0.601802C10.1492 0.486592 10.207 0.379932 10.2853 0.289108C10.3636 0.198284 10.4606 0.125437 10.5697 0.0755414C10.6788 0.0256461 10.7965 -0.000121029 10.9164 4.27385e-07ZM12.0447 1.96917C11.9197 1.92917 11.8897 1.94667 11.8447 2.02167L11.7931 2.115C11.6584 2.34589 11.4539 2.52806 11.209 2.63529C10.9642 2.74251 10.6916 2.76926 10.4306 2.71167C9.76783 2.5694 9.09176 2.49844 8.41391 2.5C7.70391 2.5 7.02474 2.575 6.39724 2.71167C6.13622 2.76926 5.86365 2.74251 5.6188 2.63529C5.37394 2.52806 5.16944 2.34589 5.03475 2.115L4.98308 2.0225C4.93891 1.9475 4.90891 1.93 4.78474 1.96917C4.48808 2.06333 4.16974 2.16417 3.91391 2.33333C3.67474 2.5125 3.35558 2.95833 3.02141 3.69917C2.38308 5.11333 1.88308 7.2025 1.72308 8.69917C1.68974 9.015 1.67224 9.28583 1.66808 9.50917V9.75417C1.67141 9.9025 1.68225 10.02 1.69725 10.105C1.90891 10.3125 2.17058 10.475 2.43308 10.6242L3.00141 10.9383L3.37308 11.1342L3.67641 10.5275C3.52955 10.3907 3.43702 10.2054 3.41583 10.0058C3.39463 9.80618 3.44621 9.60563 3.56106 9.441C3.67591 9.27638 3.84633 9.15874 4.04099 9.10972C4.23564 9.06069 4.44145 9.08358 4.62058 9.17417C5.63391 9.68333 6.95224 10 8.41391 10C9.87474 10 11.1939 9.68167 12.2072 9.175C12.3787 9.0891 12.5746 9.06497 12.7618 9.10669C12.949 9.14841 13.1161 9.25342 13.2348 9.40402C13.3536 9.55461 13.4168 9.74155 13.4137 9.93332C13.4107 10.1251 13.3416 10.3099 13.2181 10.4567L13.1514 10.5275L13.4547 11.1358C13.7031 11.0075 13.9522 10.8717 14.2022 10.7333C14.5272 10.5533 14.8689 10.3642 15.1331 10.1058C15.1481 10.02 15.1581 9.9025 15.1622 9.75417V9.50917C15.1555 9.23823 15.1371 8.9677 15.1072 8.69833C14.9472 7.2025 14.4472 5.11333 13.8089 3.69833C13.4756 2.95833 13.1556 2.5125 12.9172 2.33333C12.6606 2.16417 12.3422 2.06333 12.0447 1.96917ZM5.70558 5.41667C6.09235 5.41667 6.46329 5.57031 6.73678 5.8438C7.01027 6.11729 7.16391 6.48823 7.16391 6.875C7.16391 7.26178 7.01027 7.63271 6.73678 7.9062C6.46329 8.17969 6.09235 8.33333 5.70558 8.33333C5.3188 8.33333 4.94787 8.17969 4.67438 7.9062C4.40089 7.63271 4.24724 7.26178 4.24724 6.875C4.24724 6.48823 4.40089 6.11729 4.67438 5.8438C4.94787 5.57031 5.3188 5.41667 5.70558 5.41667ZM11.1222 5.41667C11.509 5.41667 11.88 5.57031 12.1534 5.8438C12.4269 6.11729 12.5806 6.48823 12.5806 6.875C12.5806 7.26178 12.4269 7.63271 12.1534 7.9062C11.88 8.17969 11.509 8.33333 11.1222 8.33333C10.7355 8.33333 10.3645 8.17969 10.091 7.9062C9.81756 7.63271 9.66391 7.26178 9.66391 6.875C9.66391 6.48823 9.81756 6.11729 10.091 5.8438C10.3645 5.57031 10.7355 5.41667 11.1222 5.41667Z" fill="white"/>
</svg>
