<svg width="12" height="7" viewBox="0 0 12 7" fill="none" xmlns="http://www.w3.org/2000/svg">
<path d="M11.1384 0.926409C11.1384 0.837123 11.0938 0.736676 11.0268 0.669712L10.4688 0.111676C10.4018 0.0447122 10.3013 6.9499e-05 10.2121 6.9499e-05C10.1228 6.9499e-05 10.0223 0.0447122 9.95536 0.111676L5.5692 4.49784L1.18304 0.111676C1.11607 0.0447122 1.01563 6.9499e-05 0.926339 6.9499e-05C0.825893 6.9499e-05 0.736607 0.0447122 0.669643 0.111676L0.111607 0.669712C0.0446429 0.736676 7.45058e-08 0.837123 7.45058e-08 0.926409C7.45058e-08 1.01569 0.0446429 1.11614 0.111607 1.1831L5.3125 6.384C5.37946 6.45096 5.47991 6.49561 5.5692 6.49561C5.65848 6.49561 5.75893 6.45096 5.82589 6.384L11.0268 1.1831C11.0938 1.11614 11.1384 1.01569 11.1384 0.926409Z" fill="#151439" fill-opacity="0.4"/>
</svg>
