<svg width="42" height="36" viewBox="0 0 42 36" fill="none" xmlns="http://www.w3.org/2000/svg">
<path d="M29.4322 30.9278C29.4322 30.9278 29.4146 30.9395 29.4029 30.9454L22.4546 34.9552C21.4595 35.5288 20.2361 35.5288 19.241 34.9552L12.2927 30.9454C12.2927 30.9454 12.2751 30.9395 12.2634 30.9278C10.601 29.9444 10.601 27.4742 12.2634 26.4908C12.2751 26.4849 12.281 26.4791 12.2927 26.4732L19.241 22.4634C20.2361 21.8898 21.4595 21.8898 22.4546 22.4634L29.4029 26.4732C29.4029 26.4732 29.4205 26.4791 29.4322 26.4908C31.0946 27.4742 31.0946 29.9444 29.4322 30.9278Z" fill="url(#paint0_linear_49789_3079)"/>
<path d="M18.4156 19.9112C18.4156 19.9112 18.398 19.9229 18.3863 19.9288L11.438 23.9386C10.4429 24.5122 9.2195 24.5122 8.22438 23.9386L1.27609 19.9288C1.27609 19.9288 1.25854 19.9229 1.24683 19.9112C-0.41561 18.9278 -0.41561 16.4576 1.24683 15.4742C1.25854 15.4683 1.26438 15.4625 1.27609 15.4566L8.22438 11.4468C9.2195 10.8732 10.4429 10.8732 11.438 11.4468L18.3863 15.4566C18.3863 15.4566 18.4039 15.4625 18.4156 15.4742C20.078 16.4576 20.078 18.9278 18.4156 19.9112Z" fill="url(#paint1_linear_49789_3079)"/>
<path d="M40.4488 19.9112C40.4488 19.9112 40.4313 19.9229 40.4195 19.9288L33.4713 23.9386C32.4761 24.5122 31.2527 24.5122 30.2576 23.9386L23.3093 19.9288C23.3093 19.9288 23.2917 19.9229 23.28 19.9112C21.6176 18.9278 21.6176 16.4576 23.28 15.4742C23.2917 15.4683 23.2976 15.4625 23.3093 15.4566L30.2576 11.4468C31.2527 10.8732 32.4761 10.8732 33.4713 11.4468L40.4195 15.4566C40.4195 15.4566 40.4371 15.4625 40.4488 15.4742C42.1112 16.4576 42.1112 18.9278 40.4488 19.9112Z" fill="#6F6AF8"/>
<path d="M29.4322 8.89465C29.4322 8.89465 29.4146 8.90635 29.4029 8.91221L22.4546 12.922C21.4595 13.4956 20.2361 13.4956 19.241 12.922L12.2927 8.91221C12.2927 8.91221 12.2751 8.90635 12.2634 8.89465C10.601 7.91123 10.601 5.44098 12.2634 4.45756C12.2751 4.45171 12.281 4.44586 12.2927 4.44L19.241 0.430244C20.2361 -0.143415 21.4595 -0.143415 22.4546 0.430244L29.4029 4.44C29.4029 4.44 29.4205 4.44586 29.4322 4.45756C31.0946 5.44098 31.0946 7.91123 29.4322 8.89465Z" fill="#6F6AF8"/>
<defs>
<linearGradient id="paint0_linear_49789_3079" x1="11.0225" y1="28.7093" x2="30.679" y2="28.7093" gradientUnits="userSpaceOnUse">
<stop stop-color="#84F8B2"/>
<stop offset="1" stop-color="#8CDCE2"/>
</linearGradient>
<linearGradient id="paint1_linear_49789_3079" x1="0" y1="17.6927" x2="19.6624" y2="17.6927" gradientUnits="userSpaceOnUse">
<stop stop-color="#84F8B2"/>
<stop offset="1" stop-color="#8CDCE2"/>
</linearGradient>
</defs>
</svg>
