<svg width="351" height="298" viewBox="0 0 351 298" fill="none" xmlns="http://www.w3.org/2000/svg">
<g opacity="0.1">
<path d="M247.387 259.959C247.387 259.959 247.24 260.057 247.141 260.106L188.739 293.809C180.375 298.631 170.092 298.631 161.728 293.809L103.326 260.106C103.326 260.106 103.178 260.057 103.08 259.959C89.1063 251.693 89.1063 230.93 103.08 222.664C103.178 222.615 103.227 222.566 103.326 222.516L161.728 188.813C170.092 183.992 180.375 183.992 188.739 188.813L247.141 222.516C247.141 222.516 247.289 222.566 247.387 222.664C261.361 230.93 261.361 251.693 247.387 259.959Z" fill="url(#paint0_linear_49789_3121)"/>
<path d="M154.788 167.36C154.788 167.36 154.64 167.458 154.542 167.507L96.1394 201.21C87.7752 206.032 77.4921 206.032 69.1279 201.21L10.7258 167.507C10.7258 167.507 10.5783 167.458 10.4799 167.36C-3.4933 159.094 -3.4933 138.331 10.4799 130.065C10.5783 130.016 10.6274 129.967 10.7258 129.917L69.1279 96.2144C77.4921 91.3927 87.7752 91.3927 96.1394 96.2144L154.542 129.917C154.542 129.917 154.689 129.967 154.788 130.065C168.761 138.331 168.761 159.094 154.788 167.36Z" fill="url(#paint1_linear_49789_3121)"/>
<path d="M339.987 167.36C339.987 167.36 339.839 167.458 339.741 167.507L281.339 201.21C272.975 206.032 262.692 206.032 254.327 201.21L195.925 167.507C195.925 167.507 195.778 167.458 195.679 167.36C181.706 159.094 181.706 138.331 195.679 130.065C195.778 130.016 195.827 129.967 195.925 129.917L254.327 96.2144C262.692 91.3927 272.975 91.3927 281.339 96.2144L339.741 129.917C339.741 129.917 339.889 129.967 339.987 130.065C353.96 138.331 353.96 159.094 339.987 167.36Z" fill="white"/>
<path d="M247.387 74.7616C247.387 74.7616 247.24 74.86 247.141 74.9092L188.739 108.612C180.375 113.434 170.092 113.434 161.728 108.612L103.326 74.9092C103.326 74.9092 103.178 74.86 103.08 74.7616C89.1063 66.4958 89.1063 45.7327 103.08 37.4669C103.178 37.4177 103.227 37.3685 103.326 37.3193L161.728 3.6163C170.092 -1.20543 180.375 -1.20543 188.739 3.6163L247.141 37.3193C247.141 37.3193 247.289 37.3685 247.387 37.4669C261.361 45.7327 261.361 66.4958 247.387 74.7616Z" fill="white"/>
</g>
<defs>
<linearGradient id="paint0_linear_49789_3121" x1="92.6488" y1="241.311" x2="257.867" y2="241.311" gradientUnits="userSpaceOnUse">
<stop stop-color="#84F8B2"/>
<stop offset="1" stop-color="#8CDCE2"/>
</linearGradient>
<linearGradient id="paint1_linear_49789_3121" x1="0" y1="148.712" x2="165.267" y2="148.712" gradientUnits="userSpaceOnUse">
<stop stop-color="#84F8B2"/>
<stop offset="1" stop-color="#8CDCE2"/>
</linearGradient>
</defs>
</svg>
